<svg width="61" height="16" viewBox="0 0 61 16" fill="none" xmlns="http://www.w3.org/2000/svg">
<rect x="46" y="1" width="14" height="14" rx="7" fill="#CAFF00"/>
<g clip-path="url(#clip0_50_410)">
<path fill-rule="evenodd" clip-rule="evenodd" d="M52.9998 2C49.6861 2 46.9998 4.68629 46.9998 8C46.9998 11.3137 49.6861 14 52.9998 14C56.3135 14 58.9998 11.3137 58.9998 8C58.9998 4.68629 56.3135 2 52.9998 2ZM45.6665 8C45.6665 3.94991 48.9497 0.666664 52.9998 0.666664C57.0499 0.666664 60.3332 3.94991 60.3332 8C60.3332 12.0501 57.0499 15.3333 52.9998 15.3333C48.9497 15.3333 45.6665 12.0501 45.6665 8Z" fill="#C6F806"/>
</g>
<g clip-path="url(#clip1_50_410)">
<path fill-rule="evenodd" clip-rule="evenodd" d="M9.13897 2.10768C8.38665 1.96102 7.61308 1.96102 6.86076 2.10768C6.49937 2.17813 6.1493 1.94228 6.07885 1.58089C6.0084 1.2195 6.24425 0.869431 6.60564 0.798981C7.52646 0.619476 8.47327 0.619476 9.39409 0.798981C9.75548 0.869431 9.99133 1.2195 9.92088 1.58089C9.85043 1.94228 9.50036 2.17813 9.13897 2.10768Z" fill="#C6F806"/>
<path fill-rule="evenodd" clip-rule="evenodd" d="M11.1809 2.09991C11.3871 1.7949 11.8015 1.71482 12.1066 1.92106C12.8859 2.44802 13.5561 3.12066 14.0801 3.90196C14.2852 4.20774 14.2036 4.62188 13.8978 4.82698C13.5921 5.03208 13.1779 4.95047 12.9728 4.6447C12.5445 4.00609 11.9967 3.45631 11.3597 3.0256C11.0547 2.81937 10.9746 2.40492 11.1809 2.09991Z" fill="#C6F806"/>
<path fill-rule="evenodd" clip-rule="evenodd" d="M14.4191 6.07899C14.7805 6.00854 15.1306 6.24439 15.201 6.60578C15.3805 7.52659 15.3805 8.47341 15.201 9.39423C15.1306 9.75562 14.7805 9.99147 14.4191 9.92102C14.0577 9.85057 13.8219 9.5005 13.8923 9.13911C14.039 8.38679 14.039 7.61322 13.8923 6.8609C13.8219 6.49951 14.0577 6.14944 14.4191 6.07899Z" fill="#C6F806"/>
<path fill-rule="evenodd" clip-rule="evenodd" d="M13.9002 11.1811C14.2052 11.3873 14.2853 11.8017 14.0791 12.1068C13.5521 12.8861 12.8795 13.5563 12.0982 14.0803C11.7924 14.2854 11.3782 14.2038 11.1731 13.898C10.968 13.5923 11.0497 13.1781 11.3554 12.973C11.994 12.5447 12.5438 11.9969 12.9745 11.3599C13.1808 11.0549 13.5952 10.9748 13.9002 11.1811Z" fill="#C6F806"/>
<path fill-rule="evenodd" clip-rule="evenodd" d="M6.07882 14.4192C6.1492 14.0578 6.49923 13.8219 6.86063 13.8923C7.61305 14.0388 8.38668 14.0388 9.1391 13.8923C9.5005 13.8219 9.85053 14.0578 9.92091 14.4192C9.99128 14.7806 9.75536 15.1307 9.39396 15.201C8.47321 15.3804 7.52652 15.3804 6.60577 15.201C6.24437 15.1307 6.00845 14.7806 6.07882 14.4192Z" fill="#C6F806"/>
<path fill-rule="evenodd" clip-rule="evenodd" d="M2.10201 11.173C2.40778 10.9679 2.82193 11.0495 3.02703 11.3553C3.45537 11.9939 4.00312 12.5437 4.64013 12.9744C4.94514 13.1806 5.02521 13.5951 4.81898 13.9001C4.61275 14.2051 4.1983 14.2852 3.89329 14.0789C3.11394 13.552 2.44379 12.8793 1.91972 12.098C1.71462 11.7923 1.79624 11.3781 2.10201 11.173Z" fill="#C6F806"/>
<path fill-rule="evenodd" clip-rule="evenodd" d="M1.58109 6.07899C1.94248 6.14944 2.17833 6.49951 2.10788 6.8609C1.96122 7.61322 1.96122 8.38679 2.10788 9.13911C2.17833 9.5005 1.94248 9.85057 1.58109 9.92102C1.2197 9.99147 0.869629 9.75562 0.79918 9.39423C0.619674 8.47341 0.619674 7.52659 0.79918 6.60578C0.869629 6.24439 1.2197 6.00854 1.58109 6.07899Z" fill="#C6F806"/>
<path fill-rule="evenodd" clip-rule="evenodd" d="M4.82703 2.10196C5.03213 2.40774 4.95051 2.82188 4.64474 3.02698C4.00614 3.45533 3.45636 4.00308 3.02565 4.64008C2.81941 4.94509 2.40497 5.02517 2.09996 4.81893C1.79495 4.6127 1.71487 4.19826 1.9211 3.89325C2.44806 3.11389 3.1207 2.44374 3.90201 1.91968C4.20778 1.71458 4.62193 1.79619 4.82703 2.10196Z" fill="#C6F806"/>
</g>
<path d="M16 7.5H46" stroke="#C6F806" stroke-linecap="round" stroke-dasharray="2 2"/>
<defs>
<clipPath id="clip0_50_410">
<rect width="16" height="16" fill="white" transform="translate(45)"/>
</clipPath>
<clipPath id="clip1_50_410">
<rect width="16" height="16" fill="white"/>
</clipPath>
</defs>
</svg>
