<svg width="51" height="51" viewBox="0 0 51 51" fill="none" xmlns="http://www.w3.org/2000/svg">
<g clip-path="url(#clip0_35_582)">
<path d="M37.2984 3.2011C30.797 11.3691 27.5463 15.4531 22.8843 16.6545C18.2223 17.856 13.4027 15.8518 3.76334 11.8435L0.0800889 10.3119L3.20113 12.7961C11.3691 19.2974 15.4531 22.5481 16.6546 27.2101C17.856 31.8721 15.8518 36.6918 11.8435 46.3312L10.3119 50.0145L12.7961 46.8934C19.2975 38.7254 22.5482 34.6415 27.2102 33.44C31.8722 32.2385 36.6918 34.2427 46.3312 38.2511L50.0146 39.7828L46.8934 37.2984C38.7254 30.797 34.6414 27.5463 33.44 22.8843C32.2385 18.2223 34.2427 13.4027 38.251 3.76332L39.7827 0.0799392L37.2984 3.2011Z" fill="#CAFF00"/>
</g>
<defs>
<clipPath id="clip0_35_582">
<rect width="41" height="41" fill="white" transform="translate(50.0146 39.7828) rotate(165.549)"/>
</clipPath>
</defs>
</svg>
