<svg width="106" height="24" viewBox="0 0 106 24" fill="none" xmlns="http://www.w3.org/2000/svg">
<path d="M17.25 11.84L26.01 23H17.34L13.02 17.12L8.67 23H0L8.76 11.84L0.3 1.22H8.97L13.02 6.62L17.04 1.22H25.71L17.25 11.84ZM37.8996 23.3C33.3196 23.3 29.9496 22.31 27.7896 20.33C25.6296 18.33 24.5496 15.53 24.5496 11.93C24.5496 8.37 25.6196 5.59 27.7596 3.59C29.9196 1.59 33.2996 0.589999 37.8996 0.589999C42.5196 0.589999 45.8996 1.59 48.0396 3.59C50.1996 5.59 51.2796 8.37 51.2796 11.93C51.2796 15.55 50.2096 18.35 48.0696 20.33C45.9296 22.31 42.5396 23.3 37.8996 23.3ZM37.8996 17.18C40.1196 17.18 41.7196 16.76 42.6996 15.92C43.6796 15.06 44.1696 13.73 44.1696 11.93C44.1696 10.17 43.6796 8.86 42.6996 8C41.7196 7.14 40.1196 6.71 37.8996 6.71C35.6996 6.71 34.1096 7.14 33.1296 8C32.1496 8.86 31.6596 10.17 31.6596 11.93C31.6596 13.71 32.1496 15.03 33.1296 15.89C34.1096 16.75 35.6996 17.18 37.8996 17.18ZM77.7607 8.48C77.7607 10.22 77.3307 11.69 76.4707 12.89C75.6307 14.09 74.1807 14.96 72.1207 15.5C72.3607 15.82 72.5307 16.07 72.6307 16.25L77.4907 23H69.3307C68.4507 21.36 67.0607 19.04 65.1607 16.04H60.7507V23H53.6707C53.8307 19.12 53.9107 15.49 53.9107 12.11C53.9107 8.73 53.8307 5.1 53.6707 1.22H60.7507V1.25H66.9007C70.9407 1.25 73.7607 1.9 75.3607 3.2C76.9607 4.5 77.7607 6.26 77.7607 8.48ZM60.7507 7.01V10.43H64.8007C66.5007 10.43 67.7807 10.38 68.6407 10.28C69.5207 10.16 70.1307 9.98 70.4707 9.74C70.8107 9.5 70.9807 9.15 70.9807 8.69C70.9807 8.25 70.8207 7.91 70.5007 7.67C70.1807 7.43 69.5807 7.26 68.7007 7.16C67.8207 7.06 66.5207 7.01 64.8007 7.01H60.7507ZM97.298 23C96.918 21.86 96.408 20.43 95.768 18.71H86.198L84.698 23H77.168L85.568 1.22H96.608L105.068 23H97.298ZM94.058 14.03C93.298 11.93 92.518 9.83 91.718 7.73L90.998 5.78C90.298 7.6 89.268 10.35 87.908 14.03H94.058Z" fill="#C6F806"/>
</svg>
